<svg width="169" height="171" viewBox="0 0 169 171" fill="none" xmlns="http://www.w3.org/2000/svg">
<rect width="169" height="171" fill="#1E1E1E"/>
<rect width="168.63" height="170.08" fill="black"/>
<path d="M143.59 136H39.75V53.04L56.61 34.07H95.66V38.11C95.96 38.05 96.26 38.02 96.56 38.02C96.95 38.02 97.34 38.02 97.73 38.04V34.08H120.15C120.72 34.08 121.19 33.62 121.19 33.04C121.19 32.46 120.73 32 120.15 32H26.71C26.14 32 25.67 32.46 25.67 33.04C25.67 33.62 26.13 34.08 26.71 34.08H37.67V136H25.04C24.47 136 24 136.46 24 137.04C24 137.62 24.46 138.08 25.04 138.08H143.59C144.16 138.08 144.63 137.62 144.63 137.04C144.63 136.46 144.17 136 143.59 136ZM39.75 34.07H53.83L39.75 49.91V34.07Z" fill="#EAF8C4"/>
<path d="M97.88 34.07H95.67V53.79H97.88V34.07Z" fill="#EAF8C4"/>
<path d="M97.74 34.08H120.16C120.73 34.08 121.2 33.62 121.2 33.04C121.2 32.46 120.74 32 120.16 32H26.71C26.14 32 25.67 32.46 25.67 33.04C25.67 33.62 26.13 34.08 26.71 34.08H37.67V136H25.04C24.47 136 24 136.46 24 137.04C24 137.62 24.46 138.08 25.04 138.08H143.59C144.16 138.08 144.63 137.62 144.63 137.04C144.63 136.46 144.17 136 143.59 136H39.75V53.04L56.61 34.07H95.66M39.74 34.07H53.82L39.74 49.91V34.07Z" fill="#EAF8C4"/>
<path d="M37.67 34.01V135.93H25.04C24.47 135.93 24 136.39 24 136.97C24 137.55 24.46 138.01 25.04 138.01H143.59C144.16 138.01 144.63 137.55 144.63 136.97C144.63 136.39 144.17 135.93 143.59 135.93H39.75V52.97L39.79 34" fill="#EAF8C4"/>
<path d="M37.67 136H25.04C24.47 136 24 136.46 24 137.04C24 137.62 24.46 138.08 25.04 138.08H143.59C144.16 138.08 144.63 137.62 144.63 137.04C144.63 136.46 144.17 136 143.59 136H39.75" fill="#EAF8C4"/>
</svg>
