<svg width="169" height="171" viewBox="0 0 169 171" fill="none" xmlns="http://www.w3.org/2000/svg">
<rect width="169" height="171" fill="#1E1E1E"/>
<rect width="168.63" height="170.08" fill="black"/>
<path d="M143.59 136H39.75V53.04L56.61 34.08H95.66V44.61C89.49 45.18 84.64 50.39 84.64 56.7C84.64 63.01 89.49 68.22 95.66 68.79V77.42L80.32 84.87C79.8 85.12 79.59 85.74 79.84 86.26C80.09 86.78 80.71 86.99 81.23 86.74L95.67 79.73V104.98L80.04 120.74C79.64 121.15 79.64 121.8 80.04 122.21C80.45 122.61 81.1 122.61 81.51 122.21L96.7 106.89L111.89 122.21C112.09 122.41 112.36 122.52 112.63 122.52C112.9 122.52 113.16 122.42 113.36 122.22C113.77 121.82 113.77 121.16 113.36 120.75L97.73 104.99V79.74L112.17 86.75C112.32 86.82 112.47 86.85 112.62 86.85C113.01 86.85 113.38 86.63 113.55 86.26C113.8 85.74 113.59 85.12 113.07 84.87L97.73 77.42V68.8C103.99 68.31 108.93 63.07 108.93 56.69C108.93 50.31 103.99 45.07 97.73 44.58V34.08H120.15C120.72 34.08 121.19 33.62 121.19 33.04C121.19 32.46 120.73 32 120.15 32H26.71C26.14 32 25.67 32.46 25.67 33.04C25.67 33.62 26.13 34.08 26.71 34.08H37.67V136H25.04C24.47 136 24 136.46 24 137.04C24 137.62 24.46 138.08 25.04 138.08H143.59C144.16 138.08 144.63 137.62 144.63 137.04C144.63 136.46 144.17 136 143.59 136ZM106.87 56.7C106.87 62.25 102.35 66.77 96.8 66.77C91.25 66.77 86.73 62.25 86.73 56.7C86.73 51.15 91.25 46.63 96.8 46.63C102.35 46.63 106.87 51.15 106.87 56.7ZM53.83 34.08L39.75 49.92V34.08H53.83Z" fill="#EAF8C4"/>
<path d="M97.74 34.08H120.16C120.73 34.08 121.2 33.62 121.2 33.04C121.2 32.46 120.74 32 120.16 32H26.71C26.14 32 25.67 32.46 25.67 33.04C25.67 33.62 26.13 34.08 26.71 34.08H37.67V136H25.04C24.47 136 24 136.46 24 137.04C24 137.62 24.46 138.08 25.04 138.08H143.59C144.16 138.08 144.63 137.62 144.63 137.04C144.63 136.46 144.17 136 143.59 136H39.75V53.04L56.61 34.07H95.66M39.74 34.07H53.82L39.74 49.91V34.07Z" fill="#EAF8C4"/>
<path d="M37.67 34.01V135.93H25.04C24.47 135.93 24 136.39 24 136.97C24 137.55 24.46 138.01 25.04 138.01H143.59C144.16 138.01 144.63 137.55 144.63 136.97C144.63 136.39 144.17 135.93 143.59 135.93H39.75V52.97L39.79 34" fill="#EAF8C4"/>
<path d="M37.67 136H25.04C24.47 136 24 136.46 24 137.04C24 137.62 24.46 138.08 25.04 138.08H143.59C144.16 138.08 144.63 137.62 144.63 137.04C144.63 136.46 144.17 136 143.59 136H39.75" fill="#EAF8C4"/>
</svg>
